#!OML:ASF F:\VICON\USERDATA\INSTALL\rory3\rory3.ASF
:FULLY-SPECIFIED
:DEGREES
129
root 0.149556 16.7519 34.3272 3.6207 3.99245 1.18532
lowerback 18.0782 2.59084 -0.94417
upperback -0.688855 3.14309 -0.827918
thorax -10.9365 1.50652 -1.22432
lowerneck -22.4437 -4.1176 -2.04318
upperneck 10.5122 -5.65824 4.58249
head 7.03557 -2.36053 1.13586
rclavicle 7.75757e-014 -3.02401e-014
rhumerus -50.2771 8.11316 -103.322
rradius 98.5019
rwrist -10.0509
rhand -17.2197 39.6104
rfingers 7.12502
rthumb 9.02334 9.82343
lclavicle 7.75757e-014 -3.02401e-014
lhumerus -42.7686 -15.9445 94.617
lradius 117.224
lwrist 34.5835
lhand -24.106 -0.9387
lfingers 7.12502
lthumb 2.375 29.0278
rfemur -22.8698 -5.68687 21.1145
rtibia 116.254
rfoot 8.41578 -10.2405
rtoes 30.1128
lfemur -23.1915 -2.5774 -25.1893
ltibia 51.9918
lfoot -25.8303 3.49351
ltoes -5.15155
130
root 0.152501 16.753 34.8084 3.75965 3.79221 1.06356
lowerback 18.1428 2.4361 -0.974291
upperback -0.585473 2.94216 -0.720677
thorax -10.8663 1.41743 -1.03474
lowerneck -22.703 -3.95987 -2.0516
upperneck 10.3526 -5.43473 4.59952
head 7.01744 -2.25073 1.16891
rclavicle 5.05783e-014 -1.635e-014
rhumerus -51.2119 7.81398 -103.163
rradius 98.7427
rwrist -9.96362
rhand -17.3957 38.9171
rfingers 7.12502
rthumb 8.85354 9.12279
lclavicle 5.05783e-014 -1.635e-014
lhumerus -40.0685 -16.3391 94.4221
lradius 117.202
lwrist 33.9301
lhand -24.5285 0.584399
lfingers 7.12502
lthumb 1.96698 30.5551
rfemur -26.4362 -6.29871 21.069
rtibia 117.344
rfoot 7.79338 -8.73631
rtoes 29.1765
lfemur -21.1626 -2.42437 -25.0819
ltibia 51.5376
lfoot -26.6332 3.79918
ltoes -3.9482
131
root 0.161302 16.7713 35.3069 3.93036 3.29133 1.20409
lowerback 17.837 2.35291 -1.29051
upperback -0.36512 2.77685 -0.667824
thorax -10.465 1.36154 -0.732376
lowerneck -23.0115 -3.8982 -2.10122
upperneck 10.1884 -5.3257 4.60829
head 7.00986 -2.1976 1.1908
rclavicle -2.65564e-014 1.95306e-014
rhumerus -51.9935 7.65685 -103.023
rradius 99.1788
rwrist -10.3508
rhand -17.2352 38.8598
rfingers 7.12502
rthumb 9.00835 9.07216
lclavicle -2.65564e-014 1.95306e-014
lhumerus -37.5508 -16.4274 94.2552
lradius 117.306
lwrist 32.8446
lhand -25.0275 1.81084
lfingers 7.12502
lthumb 1.48496 31.7854
rfemur -29.7337 -6.40361 20.8112
rtibia 117.829
rfoot 7.49909 -7.19223
rtoes 23.142
lfemur -18.8365 -2.01506 -25.3876
ltibia 50.6916
lfoot -26.9284 4.97533
ltoes -5.55951
132
root 0.164495 16.7967 35.8049 4.14818 2.75133 1.64104
lowerback 17.4101 2.28202 -1.91882
upperback -0.1479 2.55971 -0.717259
thorax -10.0074 1.29137 -0.349127
lowerneck -23.2897 -3.7978 -2.17688
upperneck 10.1134 -5.18164 4.74056
head 7.03042 -2.11585 1.26201
rclavicle -2.55066e-014 7.35503e-015
rhumerus -52.7747 7.66915 -102.949
rradius 99.8291
rwrist -11.0636
rhand -17.2122 39.111
rfingers 7.12502
rthumb 9.03059 9.32428
lclavicle -2.55066e-014 7.35503e-015
lhumerus -35.448 -16.3966 94.1273
lradius 117.615
lwrist 31.8936
lhand -25.0608 1.54962
lfingers 7.12502
lthumb 1.45288 31.5244
rfemur -33.0109 -6.406 20.3033
rtibia 117.856
rfoot 6.74393 -6.43435
rtoes 19.9203
lfemur -16.3615 -1.69569 -26.0372
ltibia 49.5084
lfoot -26.6115 6.44454
ltoes -8.7763
133
root 0.164789 16.8375 36.3107 4.36022 2.08562 1.83942
lowerback 17.2974 2.18203 -2.4194
upperback -0.265868 2.32969 -0.69164
thorax -10.0937 1.20899 0.0222389
lowerneck -23.1525 -3.55759 -2.11012
upperneck 10.2443 -4.88946 4.74535
head 7.04061 -1.97314 1.29139
rclavicle 1.20327e-014 -9.24349e-015
rhumerus -53.9987 7.85546 -102.977
rradius 100.586
rwrist -11.6864
rhand -17.1491 39.3589
rfingers 7.12502
rthumb 9.09145 9.57488
lclavicle 1.20327e-014 -9.24349e-015
lhumerus -34.336 -16.2039 94.0897
lradius 118.367
lwrist 31.1712
lhand -25.1192 1.48172
lfingers 7.12502
lthumb 1.39642 31.4569
rfemur -36.1033 -6.25182 20.2897
rtibia 117.267
rfoot 4.95749 -5.74438
rtoes 16.1047
lfemur -13.925 -1.42989 -26.4118
ltibia 48.2144
lfoot -25.8274 7.19303
ltoes -11.9421
134
root 0.170202 16.8942 36.8246 4.52063 2.15319 2.10916
lowerback 17.621 1.73988 -2.69766
upperback -0.680603 1.67046 -0.67192
thorax -10.7335 0.917243 0.354362
lowerneck -22.6233 -3.24971 -2.05315
upperneck 10.5068 -4.49363 4.62268
head 7.02489 -1.79771 1.29636
rclavicle 9.47333e-015 -1.2921e-015
rhumerus -55.7582 7.94969 -103.047
rradius 101.519
rwrist -12.2561
rhand -16.6927 39.5275
rfingers 7.12502
rthumb 9.53188 9.76308
lclavicle 9.47333e-015 -1.2921e-015
lhumerus -33.9938 -15.8156 94.1571
lradius 119.304
lwrist 31.0354
lhand -24.7661 1.88275
lfingers 7.12502
lthumb 1.7375 31.8554
rfemur -38.8201 -6.87396 20.204
rtibia 116.128
rfoot 3.86122 -4.47559
rtoes 12.7528
lfemur -11.5565 -1.84551 -26.8019
ltibia 46.8531
lfoot -24.5879 7.27511
ltoes -15.2698
135
root 0.17058 16.9529 37.3384 4.69662 2.11975 2.23985
lowerback 17.7986 1.34176 -2.95893
upperback -1.00401 1.0884 -0.543855
thorax -11.1887 0.668401 0.790372
lowerneck -22.5423 -2.94051 -2.05105
upperneck 11.0571 -4.06425 4.38172
head 7.17254 -1.60932 1.2702
rclavicle 6.64686e-015 -7.70291e-015
rhumerus -57.324 8.01385 -102.9
rradius 102.656
rwrist -12.8443
rhand -16.0629 39.472
rfingers 7.12502
rthumb 10.1395 9.73633
lclavicle 6.64686e-015 -7.70291e-015
lhumerus -33.5375 -15.4546 94.1916
lradius 120.283
lwrist 31.8371
lhand -24.7559 2.29542
lfingers 7.12502
lthumb 1.74729 32.268
rfemur -41.4091 -7.03598 20.41
rtibia 114.544
rfoot 2.46838 -3.57576
rtoes 0.991184
lfemur -8.86313 -2.17117 -27.0446
ltibia 45.5838
lfoot -23.5198 7.23351
ltoes -18.4022
136
root 0.165772 17.0401 37.8727 4.7171 2.00069 1.9419
lowerback 17.6473 0.896472 -2.9275
upperback -1.08951 0.537869 -0.276354
thorax -11.178 0.418283 1.21702
lowerneck -22.3634 -2.5128 -1.80746
upperneck 11.2928 -3.50558 3.97673
head 7.18976 -1.3705 1.169
rclavicle -6.22444e-015 -2.5196e-014
rhumerus -58.5331 8.29853 -102.722
rradius 103.607
rwrist -13.2233
rhand -15.4422 39.4252
rfingers 7.12502
rthumb 10.7383 9.71967
lclavicle -6.22444e-015 -2.5196e-014
lhumerus -32.9457 -15.0317 94.0665
lradius 121.356
lwrist 33.1805
lhand -25.2151 1.24663
lfingers 7.12502
lthumb 1.30384 31.2224
rfemur -43.3141 -6.76468 21.208
rtibia 112.228
rfoot 3.13768 -2.78953
rtoes 6.6018
lfemur -6.46 -2.41524 -26.786
ltibia 44.2666
lfoot -21.637 6.60883
ltoes -21.7231
137
root 0.16695 17.1403 38.4179 4.77599 2.20704 1.4886
lowerback 17.4216 0.356504 -2.51489
upperback -0.943815 -0.0471276 0.0407205
thorax -10.8562 0.124455 1.48774
lowerneck -23.115 -2.22392 -1.7484
upperneck 11.7608 -3.09626 3.70611
head 7.44709 -1.18487 1.1175
rclavicle -5.80203e-015 2.98177e-015
rhumerus -58.8719 8.67048 -102.241
rradius 104.064
rwrist -13.2629
rhand -15.0174 39.439
rfingers 7.12502
rthumb 11.148 9.75516
lclavicle -5.80203e-015 2.98177e-015
lhumerus -32.0068 -14.837 93.9342
lradius 122.466
lwrist 34.8176
lhand -25.2693 1.28401
lfingers 7.12502
lthumb 1.25145 31.2601
rfemur -44.9932 -6.68037 22.1791
rtibia 109.461
rfoot 2.3651 -2.48885
rtoes 5.66426
lfemur -4.20109 -2.82475 -26.3008
ltibia 42.9311
lfoot -19.0487 5.68372
ltoes -25.7703
138
root 0.159052 17.2474 38.9649 5.07936 2.2433 1.10573
lowerback 17.1969 -0.0750503 -2.33795
upperback -1.24237 -0.546843 0.35692
thorax -11.0368 -0.105129 1.86526
lowerneck -23.1986 -1.95935 -1.70443
upperneck 12.4014 -2.71956 3.40075
head 7.65778 -1.02742 1.05726
rclavicle 6.08778e-015 2.28602e-015
rhumerus -59.8591 8.85471 -101.878
rradius 104.466
rwrist -13.0415
rhand -15.0535 39.4049
rfingers 7.12502
rthumb 11.1131 9.71912
lclavicle 6.08778e-015 2.28602e-015
lhumerus -31.9603 -14.6761 93.9135
lradius 123.518
lwrist 36.5086
lhand -25.0637 1.49394
lfingers 7.12502
lthumb 1.45003 31.4688
rfemur -46.8014 -6.2634 23.0517
rtibia 106.32
rfoot 1.82365 -2.4271
rtoes 5.26744
lfemur -2.16791 -3.01345 -25.8062
ltibia 41.4114
lfoot -16.1615 3.93542
ltoes -26.6479
139
root 0.147535 17.3585 39.5282 5.4515 1.62314 1.00213
lowerback 16.7928 -0.238562 -2.56646
upperback -1.62644 -0.784563 0.553661
thorax -11.218 -0.189448 2.27155
lowerneck -23.0469 -1.71796 -1.55294
upperneck 12.9288 -2.38733 3.00972
head 7.79318 -0.899556 0.94642
rclavicle 9.93923e-016 9.93923e-017
rhumerus -61.1578 8.73649 -101.478
rradius 105.059
rwrist -12.9125
rhand -15.1322 39.4443
rfingers 7.12502
rthumb 11.0372 9.75444
lclavicle 9.93923e-016 9.93923e-017
lhumerus -31.9721 -15.0145 93.888
lradius 124.169
lwrist 37.2838
lhand -25.8327 2.2493
lfingers 7.12502
lthumb 0.707317 32.2279
rfemur -48.328 -5.22349 23.5058
rtibia 102.845
rfoot 1.04449 -2.56893
rtoes 4.1614
lfemur -0.242491 -2.38636 -25.704
ltibia 39.7572
lfoot -12.9735 1.91842
ltoes -28.8531
140
root 0.15474 17.4777 40.1047 5.28341 1.5411 0.955401
lowerback 16.6364 -0.621449 -2.46124
upperback -1.64169 -1.25553 0.675193
thorax -11.1159 -0.415541 2.46354
lowerneck -22.9042 -1.49605 -1.42437
upperneck 13.1046 -2.0841 2.74074
head 7.81657 -0.777077 0.876003
rclavicle 3.80176e-015 1.20265e-014
rhumerus -62.0795 8.51229 -100.997
rradius 105.645
rwrist -12.9739
rhand -15.0635 39.4651
rfingers 7.12502
rthumb 11.1035 9.77883
lclavicle 3.80176e-015 1.20265e-014
lhumerus -31.6198 -15.6188 93.8098
lradius 124.636
lwrist 37.3153
lhand -26.9807 3.2323
lfingers 7.12502
lthumb -0.401494 33.2117
rfemur -48.7148 -4.96286 23.7461
rtibia 98.9206
rfoot 0.0101019 -2.74619
rtoes 3.63438
lfemur 2.24091 -2.04517 -25.6323
ltibia 37.9385
lfoot -9.46266 -0.612916
ltoes -30.3251
141
root 0.159202 17.583 40.6755 5.12726 0.94161 0.626011
lowerback 16.5613 -0.74222 -2.22919
upperback -1.70373 -1.34858 0.852258
thorax -11.137 -0.466231 2.54898
lowerneck -22.2065 -1.61685 -2.02968
upperneck 12.6399 -2.1524 3.26279
head 7.56187 -0.796651 1.14043
rclavicle -5.46658e-015 -5.1684e-015
rhumerus -62.8712 8.04008 -100.406
rradius 105.941
rwrist -12.9869
rhand -14.8724 39.6425
rfingers 7.12502
rthumb 11.2878 9.96627
lclavicle -5.46658e-015 -5.1684e-015
lhumerus -31.6672 -16.0229 93.9077
lradius 124.972
lwrist 37.3606
lhand -26.7691 3.40488
lfingers 7.12502
lthumb -0.197079 33.3845
rfemur -49.0042 -4.05869 24.226
rtibia 94.704
rfoot -0.492256 -3.01457
rtoes 3.87123
lfemur 4.61024 -1.78729 -25.3012
ltibia 36.0383
lfoot -4.89808 -3.13577
ltoes -26.3801
142
root 0.152616 17.7056 41.252 5.11231 -0.0255251 -0.133668
lowerback 16.5238 -0.735613 -1.79922
upperback -1.88942 -1.2146 1.19565
thorax -11.3329 -0.411314 2.6504
lowerneck -21.5962 -1.92633 -2.95045
upperneck 12.5158 -2.43512 4.00246
head 7.45084 -0.910819 1.50059
rclavicle -6.83322e-015 1.47101e-014
rhumerus -63.7621 7.56973 -99.6919
rradius 106.263
rwrist -12.9282
rhand -14.7763 39.5799
rfingers 7.12502
rthumb 11.3805 9.90875
lclavicle -6.83322e-015 1.47101e-014
lhumerus -32.065 -16.1081 93.9608
lradius 125.285
lwrist 37.549
lhand -25.8745 3.20183
lfingers 7.12502
lthumb 0.666959 33.1805
rfemur -49.2689 -2.71616 25.1773
rtibia 90.1112
rfoot -0.681902 -3.2317
rtoes 3.92624
lfemur 6.87783 -1.29894 -24.5083
ltibia 33.8137
lfoot 0.724279 -5.16807
ltoes -22.09
143
root 0.137196 17.8153 41.8414 5.53291 -1.42926 -0.767463
lowerback 15.6813 -0.584962 -1.74716
upperback -2.03185 -0.958974 1.50503
thorax -11.0127 -0.287532 2.87651
lowerneck -21.4596 -1.84033 -3.00064
upperneck 12.8987 -2.29584 3.87133
head 7.54901 -0.859566 1.48414
rclavicle -1.28216e-014 8.54774e-015
rhumerus -64.4303 7.08994 -99.0107
rradius 106.535
rwrist -12.6155
rhand -14.7837 39.2893
rfingers 7.12502
rthumb 11.3734 9.61774
lclavicle -1.28216e-014 8.54774e-015
lhumerus -32.4057 -16.3374 93.9074
lradius 125.654
lwrist 37.6927
lhand -25.8979 3.64053
lfingers 7.12502
lthumb 0.644323 33.6193
rfemur -49.8757 -0.988245 25.9676
rtibia 85.2536
rfoot -0.652705 -3.34932
rtoes 4.26997
lfemur 8.57577 -0.215881 -23.8977
ltibia 31.961
lfoot 5.5869 -7.46238
ltoes -19.5987
